<svg width="96" height="96" viewBox="0 0 96 96" fill="none" xmlns="http://www.w3.org/2000/svg">
<g clip-path="url(#clip0)">
<rect width="96" height="96" fill="white"/>
<path d="M33.6667 30.9792H44.6042V63.7917H33.6667V74.7292H26.375V63.7917H15.4375V30.9792H26.375V20.0417H33.6667V30.9792ZM22.7292 38.2709V56.5H37.3125V38.2709H22.7292ZM70.125 49.2084H81.0625V82.0209H70.125V92.9584H62.8333V82.0209H51.8958V49.2084H62.8333V38.2709H70.125V49.2084ZM59.1875 56.5V74.7292H73.7708V56.5H59.1875Z" fill="black"/>
<g clip-path="url(#clip1)">
<path d="M72.3274 26.2575C73.5579 26.257 74.7685 26.5836 75.8465 27.2067C76.9244 27.8298 77.8347 28.7292 78.4924 29.8212C79.1502 30.9132 79.534 32.1622 79.6083 33.4519C79.6825 34.7415 79.4447 36.03 78.917 37.1972L85.869 37.195C86.4216 37.195 86.9515 37.4255 87.3422 37.8357C87.7329 38.2459 87.9524 38.8023 87.9524 39.3825V48.1325C87.9524 48.7126 87.7329 49.269 87.3422 49.6793C86.9515 50.0895 86.4216 50.32 85.869 50.32H83.7857V67.82C83.7857 68.4001 83.5662 68.9565 83.1755 69.3668C82.7848 69.777 82.2549 70.0075 81.7024 70.0075H52.5357C51.9832 70.0075 51.4533 69.777 51.0626 69.3668C50.6719 68.9565 50.4524 68.4001 50.4524 67.82V50.32H48.369C47.8165 50.32 47.2866 50.0895 46.8959 49.6793C46.5052 49.269 46.2857 48.7126 46.2857 48.1325V39.3825C46.2857 38.8023 46.5052 38.2459 46.8959 37.8357C47.2866 37.4255 47.8165 37.195 48.369 37.195L55.3211 37.1972C54.5789 35.5602 54.4141 33.6998 54.8559 31.9472C55.2977 30.1945 56.3176 28.6634 57.7338 27.6263C59.1501 26.5892 60.8709 26.1135 62.5899 26.2839C64.309 26.4542 65.9146 27.2596 67.1211 28.5565C67.7983 27.8271 68.608 27.2477 69.5023 26.8528C70.3966 26.4579 71.3572 26.2555 72.3274 26.2575ZM79.619 50.32H54.619V65.6325H79.619V50.32ZM83.7857 41.57H50.4524V45.945H83.7857V41.57ZM61.9107 30.6325C61.1082 30.6329 60.3366 30.9575 59.7557 31.539C59.1749 32.1205 58.8294 32.9144 58.7909 33.756C58.7523 34.5977 59.0236 35.4227 59.5486 36.0601C60.0735 36.6975 60.8119 37.0984 61.6107 37.1797L61.9107 37.195H65.0357V33.9137C65.0357 33.0981 64.7463 32.3116 64.224 31.7078C63.7017 31.104 62.984 30.7261 62.2107 30.6478L61.9107 30.6325ZM72.3274 30.6325L72.0274 30.6478C71.3052 30.7204 70.6297 31.0546 70.1165 31.593C69.6034 32.1314 69.2846 32.8405 69.2149 33.5987L69.2024 33.9137V37.195H72.3274L72.6274 37.1797C73.4003 37.101 74.1177 36.7229 74.6397 36.1191C75.1617 35.5154 75.4508 34.7292 75.4508 33.9137C75.4508 33.0983 75.1617 32.3121 74.6397 31.7083C74.1177 31.1046 73.4003 30.7265 72.6274 30.6478L72.3274 30.6325Z" fill="black"/>
</g>
<rect x="20.75" y="37.75" width="17.5" height="18.75" fill="#2AF161"/>
<rect x="58.25" y="56.5" width="17.5" height="18.75" fill="#F12A42"/>
<g clip-path="url(#clip2)">
<path d="M34.8274 7.50749C36.058 7.50704 37.2686 7.83359 38.3465 8.45671C39.4245 9.07982 40.3347 9.97925 40.9925 11.0712C41.6502 12.1632 42.0341 13.4122 42.1083 14.7019C42.1826 15.9915 41.9447 17.28 41.417 18.4472L48.3691 18.445C48.9216 18.445 49.4515 18.6755 49.8422 19.0857C50.2329 19.4959 50.4524 20.0523 50.4524 20.6325V29.3825C50.4524 29.9626 50.2329 30.519 49.8422 30.9293C49.4515 31.3395 48.9216 31.57 48.3691 31.57H46.2858V49.07C46.2858 49.6501 46.0663 50.2065 45.6756 50.6168C45.2849 51.027 44.755 51.2575 44.2024 51.2575H15.0358C14.4832 51.2575 13.9533 51.027 13.5626 50.6168C13.1719 50.2065 12.9524 49.6501 12.9524 49.07V31.57H10.8691C10.3166 31.57 9.78666 31.3395 9.39596 30.9293C9.00526 30.519 8.78577 29.9626 8.78577 29.3825V20.6325C8.78577 20.0523 9.00526 19.4959 9.39596 19.0857C9.78666 18.6755 10.3166 18.445 10.8691 18.445L17.8212 18.4472C17.079 16.8102 16.9142 14.9498 17.356 13.1972C17.7978 11.4445 18.8176 9.91339 20.2339 8.87632C21.6502 7.83924 23.371 7.36354 25.09 7.53388C26.809 7.70423 28.4147 8.50957 29.6212 9.80655C30.2983 9.07707 31.108 8.49772 32.0023 8.10281C32.8966 7.70789 33.8573 7.50546 34.8274 7.50749ZM42.1191 31.57H17.1191V46.8825H42.1191V31.57ZM46.2858 22.82H12.9524V27.195H46.2858V22.82ZM24.4108 11.8825C23.6082 11.8829 22.8366 12.2075 22.2558 12.789C21.675 13.3705 21.3295 14.1644 21.2909 15.006C21.2524 15.8477 21.5237 16.6727 22.0486 17.3101C22.5736 17.9475 23.312 18.3484 24.1108 18.4297L24.4108 18.445H27.5358V15.1637C27.5357 14.3481 27.2464 13.5616 26.7241 12.9578C26.2018 12.354 25.484 11.9761 24.7108 11.8978L24.4108 11.8825ZM34.8274 11.8825L34.5274 11.8978C33.8053 11.9704 33.1297 12.3046 32.6166 12.843C32.1034 13.3814 31.7847 14.0905 31.7149 14.8487L31.7024 15.1637V18.445H34.8274L35.1274 18.4297C35.9004 18.351 36.6178 17.9729 37.1398 17.3691C37.6617 16.7654 37.9509 15.9792 37.9509 15.1637C37.9509 14.3483 37.6617 13.5621 37.1398 12.9583C36.6178 12.3546 35.9004 11.9765 35.1274 11.8978L34.8274 11.8825Z" fill="black"/>
</g>
</g>
<defs>
<clipPath id="clip0">
<rect width="96" height="96" fill="white"/>
</clipPath>
<clipPath id="clip1">
<rect width="50" height="52.5" fill="white" transform="translate(42 -2.25)"/>
</clipPath>
<clipPath id="clip2">
<rect width="50" height="52.5" fill="white" transform="translate(4.5 -21)"/>
</clipPath>
</defs>
</svg>
